<svg xmlns="http://www.w3.org/2000/svg" width="750.6" height="390.999" viewBox="0 0 75.6 39.999">
	<g transform="translate(-274.884 -122.155)">
		<path d="M384.51,134.374c-3.758,5.371-7.345,9.965-12.333,12.718-10.988,6.063-27.692-.532-24.326-11.641,1.49-4.916,5.884-6.852,9.452-5.564,2.686.967,4.365,3.337,3.608,5.7-.78,2.429-2.852,3.808-4.927,2.127-1.039-.846-.176-3.152,1.166-2.523,1.3.607.5,2.084-.7,1.817,1.574,1.568,2.977.307,3.217-1.63.486-3.933-8.174-6.4-9.531,1.057-1.175,6.451,8.626,10.9,14.519,9.611,10.03-2.19,11.34-17.2-.734-19.972-4.163-1.416-10.293,1.068-14.241,3.763-1.583,1.082-2.26.373-.838-.946,13.811-12.785,26.037-4.917,35.669,5.488m-9.438-3.309a1.461,1.461,0,0,0,.091,2.135,1.647,1.647,0,0,0,2.244-.082,1.46,1.46,0,0,0-.088-2.137,1.65,1.65,0,0,0-2.247.084" transform="translate(-34.026 -0.049)" fill="#0f629e" fill-rule="evenodd" />
		<g transform="translate(274.884 122.155)">
			<path d="M317.479,130.508a13.837,13.837,0,0,0-4.792-6.742c-4.346-3.083-9.829-1.1-14.279.642a29.392,29.392,0,0,1-5.874,2.025c-.7.11-3.962-.067-4.268.658l.148.071-.135-.064a32.647,32.647,0,0,0,3.259,1.7,8.959,8.959,0,0,0,4.331.358,17.046,17.046,0,0,0,3.352-.961c.019.475.01.244,0,0h0a1.711,1.711,0,1,0,3.417-.16,1.827,1.827,0,0,0-.326-1.017,15.176,15.176,0,0,1,5.829-1.073,6.456,6.456,0,0,1,4.6,2.714,11.409,11.409,0,0,1,2.482,8.195,12.837,12.837,0,0,1-3.172,7.611,11.022,11.022,0,0,1-7.424,3.044,12.858,12.858,0,0,1-7.315-1.491c-1.616-.992-2.751-1.718-2.777-1.691-.754.19,1.346,2.206,3.449,3.346a15.626,15.626,0,0,0,7.828,1.7c5.855-.188,10.391-4.109,11.906-10.119A14.82,14.82,0,0,0,317.479,130.508Z" transform="translate(-281.162 -122.155)" fill="#78797b" />
			<path d="M277.894,137.032a15.728,15.728,0,0,1,2.93.208,20.47,20.47,0,0,1,4.438,1.024c1.839.718,3.627,1.669,5.632,1.6a10.118,10.118,0,0,0,3.06-.551c.4-.145,1.834-.685,1.749-1.2-.419.169,0,0,0,0a12.88,12.88,0,0,1-5.133.5c-1.734-.063-3.322-.911-4.944-1.47a17.713,17.713,0,0,0-5.4-.827,30.151,30.151,0,0,0-5.339.769c0,.04,0,.08,0,.118C275.894,137.244,276.891,137.077,277.894,137.032Z" transform="translate(-274.884 -128.795)" fill="#78797b" />
			<path d="M283.181,156.933a21.489,21.489,0,0,0,6.532-1.57c.492-.383,1.457,3.34,1.95,3.443.041-1.178-.221-2.35-.283-3.523a13.923,13.923,0,0,1,.213-2.678c-3.478.635-6.988,1.585-10.528,1.646-1.855.042-3.72-.1-5.574-.177l5.32,3.9c2.9,2.126,6.182,2.931,9.548,3.8C290.484,161.584,282.136,157.4,283.181,156.933Z" transform="translate(-275.169 -136.441)" fill="#78797b" />
			<path d="M310.7,155.258l.027.008-.027-.008c1.754,1.538,4.782.866,6.7.084,1.873-.765,3.533-2.062,3.9-4.266a8.13,8.13,0,0,0-2.071-6.606,5.73,5.73,0,0,0-2.83-1.778,11.245,11.245,0,0,0-2.712-.049c-.543.008-1.09.016-1.631.077-.793.091,1.651,2.789,3.157,2.369,2.225-.622,4.127,1.968,4.391,4.332C320.211,154.884,313.393,156.045,310.7,155.258Z" transform="translate(-291.685 -131.739)" fill="#78797b" />
		</g>
		<g transform="translate(274.884 154.022)">
			<path d="M283.911,183.208a3.034,3.034,0,0,0-1.373-.765,8.607,8.607,0,0,0-2.333-.258q-.679,0-1.443.048t-1.492.146q-.728.1-1.357.226a6.044,6.044,0,0,0-1.028.291v6.722a6.1,6.1,0,0,0,1.028.29q.631.129,1.357.221t1.492.14q.764.048,1.443.048a8.761,8.761,0,0,0,2.333-.253,2.962,2.962,0,0,0,1.373-.764,2.626,2.626,0,0,0,.651-1.271,9.5,9.5,0,0,0,0-3.549A2.594,2.594,0,0,0,283.911,183.208Zm-1.363,4.018a1.491,1.491,0,0,1-.3.732,1.523,1.523,0,0,1-.717.469,4.153,4.153,0,0,1-1.32.166q-.991,0-1.826-.058t-1.5-.145v-4.265q.668-.086,1.5-.145t1.826-.059a4.284,4.284,0,0,1,1.32.161,1.467,1.467,0,0,1,.717.469,1.529,1.529,0,0,1,.3.738,7.937,7.937,0,0,1,0,1.939Z" transform="translate(-274.884 -182.185)" fill="#0f629e" fill-rule="evenodd" />
			<path d="M302.075,182.329a20.386,20.386,0,0,0-2.5-.144,8.423,8.423,0,0,0-2.316.258,2.919,2.919,0,0,0-1.341.765,2.518,2.518,0,0,0-.613,1.271,9.545,9.545,0,0,0-.145,1.777v3.976h2.014l.011-3.1h4.966v3.1h2v-7.67Q303.244,182.475,302.075,182.329Zm.071,3.259h-4.955a2.6,2.6,0,0,1,.145-.694,1.249,1.249,0,0,1,.372-.528,1.715,1.715,0,0,1,.7-.334,4.7,4.7,0,0,1,1.141-.113q.711,0,1.363.027t1.234.07Z" transform="translate(-284.394 -182.185)" fill="#0f629e" fill-rule="evenodd" />
			<path d="M320.666,187.366l-3.911-5.02h-2.627v7.96h2v-5.9l4.535,5.9h2v-7.96h-2Z" transform="translate(-293.295 -182.261)" fill="#0f629e" fill-rule="evenodd" />
			<path d="M336.664,182.185a8.418,8.418,0,0,0-2.316.258,2.9,2.9,0,0,0-1.34.765,2.517,2.517,0,0,0-.615,1.271,9.6,9.6,0,0,0-.145,1.777v3.976h2.015l.01-3.1h4.966v3.1h2v-7.67q-.905-.087-2.074-.233A20.386,20.386,0,0,0,336.664,182.185Zm2.574,3.4h-4.955a2.62,2.62,0,0,1,.146-.694,1.239,1.239,0,0,1,.371-.528,1.706,1.706,0,0,1,.7-.334,4.707,4.707,0,0,1,1.142-.113q.711,0,1.362.027t1.234.07Z" transform="translate(-301.796 -182.185)" fill="#0f629e" fill-rule="evenodd" />
			<path d="M357.941,185.415v.1h-4.707v-3.145H351.22v7.949h2.014v-3.253h4.707v3.253h2v-7.949h-2Z" transform="translate(-310.697 -182.271)" fill="#0f629e" fill-rule="evenodd" />
			<rect width="1.666" height="1.507" transform="translate(54.274 0.333)" fill="#0f629e" />
			<rect width="1.665" height="1.507" transform="translate(52.23 0.333)" fill="#0f629e" />
			<path d="M382.892,189.717q0,.9-.45.969h-1.57v.012h-4.76v-4.065h-2.557q-2.688,0-2.691,3.121a3.3,3.3,0,0,0,.466,1.7,1.408,1.408,0,0,0,1.16.849h10.743a1.592,1.592,0,0,0,1.16-.467,2.092,2.092,0,0,0,.576-1.59V186.6h-2.076Zm-8.856.98h-.489c-.4,0-.695-.454-.695-1.028a3.682,3.682,0,0,1,.167-1.184c.126-.347.3-.526.521-.526.292,0,.5.287.5.706Z" transform="translate(-319.912 -184.254)" fill="#0f629e" fill-rule="evenodd" />
			<rect width="1.666" height="1.494" transform="translate(63.185 0.333)" fill="#0f629e" />
			<rect width="2.076" height="7.713" transform="translate(65.964 0.333)" fill="#0f629e" />
			<path d="M409.51,186.642h-3.7V188.2H408.5c.45,0,.663.322.663.944v.658c0,.622-.245.92-.687.92h-4.127v1.6h5.162c1.3,0,1.712-.454,1.712-2.272v-1.22C411.222,187.156,410.82,186.642,409.51,186.642Z" transform="translate(-335.622 -184.276)" fill="#0f629e" fill-rule="evenodd" />
		</g>
	</g>
</svg>
